<?xml version="1.0" encoding="iso-8859-1"?>
<!-- Generator: Adobe Illustrator 19.0.0, SVG Export Plug-In . SVG Version: 6.00 Build 0)  -->
<svg xmlns="http://www.w3.org/2000/svg" xmlns:xlink="http://www.w3.org/1999/xlink" version="1.1" id="Layer_1" x="0px" y="0px" viewBox="0 0 512 512" style="enable-background:new 0 0 512 512;" xml:space="preserve" width="512px" height="512px">
<g>
	<g>
		<path d="M507.338,133.845L413.823,9.3c-4.395-5.854-11.29-9.298-18.61-9.298h-61.606c-0.011,0-0.022-0.002-0.031-0.002H116.364    c-0.009,0-0.02,0.002-0.029,0.002H23.273C10.42,0.002,0,10.422,0,23.274v465.453C0,501.58,10.42,512,23.273,512h93.091h279.273    h93.091C501.58,512,512,501.58,512,488.727v-340.91C512,142.778,510.363,137.874,507.338,133.845z M139.636,46.547h170.667v124.12    H139.636V46.547z M372.364,465.455H139.636v-46.545h232.727V465.455z M372.364,372.364H139.636v-46.545h232.727V372.364z     M465.455,465.455h-46.545V302.545c0-12.853-10.42-23.273-23.273-23.273H116.364c-12.853,0-23.273,10.42-23.273,23.273v162.909    H46.545V46.547h46.545v147.392c0,12.853,10.42,23.273,23.273,23.273h217.212c12.853,0,23.273-10.42,23.273-23.273V46.547h26.734    l81.872,109.036V465.455z" fill="#006DF0"/>
	</g>
</g>
<g>
</g>
<g>
</g>
<g>
</g>
<g>
</g>
<g>
</g>
<g>
</g>
<g>
</g>
<g>
</g>
<g>
</g>
<g>
</g>
<g>
</g>
<g>
</g>
<g>
</g>
<g>
</g>
<g>
</g>
</svg>
